<svg width="22" height="27" viewBox="0 0 22 27" fill="none" xmlns="http://www.w3.org/2000/svg">
<path d="M16 3.5H18.5C19.163 3.5 19.7989 3.76339 20.2678 4.23223C20.7366 4.70107 21 5.33696 21 6V23.5C21 24.163 20.7366 24.7989 20.2678 25.2678C19.7989 25.7366 19.163 26 18.5 26H3.5C2.83696 26 2.20107 25.7366 1.73223 25.2678C1.26339 24.7989 1 24.163 1 23.5V6C1 5.33696 1.26339 4.70107 1.73223 4.23223C2.20107 3.76339 2.83696 3.5 3.5 3.5H6" stroke="#EFF0F0" stroke-width="2" stroke-linecap="round" stroke-linejoin="round"/>
<path d="M14.75 1H7.25C6.55964 1 6 1.55964 6 2.25V4.75C6 5.44036 6.55964 6 7.25 6H14.75C15.4404 6 16 5.44036 16 4.75V2.25C16 1.55964 15.4404 1 14.75 1Z" stroke="#EFF0F0" stroke-width="2" stroke-linecap="round" stroke-linejoin="round"/>
</svg>
