<svg width="27" height="25" viewBox="0 0 27 25" fill="none" xmlns="http://www.w3.org/2000/svg">
<path d="M13.5 25C13.3575 25.0002 13.2165 24.9716 13.0849 24.9161C12.9533 24.8606 12.8337 24.7791 12.7331 24.6765L2.37872 14.1353C-0.792905 10.9065 -0.792905 5.65245 2.37872 2.42362C5.42451 -0.679321 10.3067 -0.804101 13.5 2.05701C16.6911 -0.800788 21.5733 -0.680425 24.6213 2.42362C27.7929 5.65245 27.7929 10.9076 24.6213 14.1353L14.2669 24.6765C14.1663 24.7791 14.0468 24.8606 13.9151 24.9161C13.7835 24.9716 13.6425 25.0002 13.5 25ZM8.13189 2.20829C7.34838 2.20689 6.57232 2.36303 5.84824 2.66774C5.12416 2.97245 4.46631 3.41974 3.91246 3.98392C2.79505 5.12361 2.16746 6.66809 2.16746 8.27835C2.16746 9.88861 2.79505 11.4331 3.91246 12.5728L13.5 22.3332L23.0875 12.5728C24.205 11.4331 24.8325 9.88861 24.8325 8.27835C24.8325 6.66809 24.205 5.12361 23.0875 3.98392C21.968 2.84636 20.4509 2.20745 18.8692 2.20745C17.2875 2.20745 15.7703 2.84636 14.6509 3.98392L14.2669 4.37483C14.1662 4.47746 14.0467 4.55889 13.9151 4.61444C13.7835 4.67 13.6425 4.6986 13.5 4.6986C13.3575 4.6986 13.2165 4.67 13.0849 4.61444C12.9533 4.55889 12.8338 4.47746 12.7331 4.37483L12.3491 3.98392C11.7957 3.41975 11.1383 2.97246 10.4145 2.66774C9.69081 2.36302 8.91507 2.20688 8.13189 2.20829Z" fill="#EFF0F0"/>
</svg>
