<svg width="28" height="28" viewBox="0 0 28 28" fill="none" xmlns="http://www.w3.org/2000/svg">
<path d="M19.1988 14.9931C20.5781 13.9138 21.5849 12.4338 22.0791 10.759C22.5732 9.0842 22.5302 7.29786 21.956 5.64849C21.3818 3.99913 20.305 2.56876 18.8753 1.55639C17.4456 0.544027 15.7342 0 13.9791 0C12.2241 0 10.5127 0.544027 9.08298 1.55639C7.65329 2.56876 6.57644 3.99913 6.00223 5.64849C5.42803 7.29786 5.38502 9.0842 5.8792 10.759C6.37337 12.4338 7.38016 13.9138 8.75949 14.9931C6.39598 15.9348 4.33374 17.4967 2.79262 19.5123C1.25149 21.528 0.289254 23.9217 0.00848627 26.4384C-0.0118372 26.6222 0.00442949 26.8081 0.0563571 26.9856C0.108285 27.1631 0.194856 27.3287 0.311129 27.4729C0.545954 27.7642 0.887502 27.9507 1.26064 27.9916C1.63378 28.0324 2.00793 27.9241 2.30081 27.6906C2.59368 27.457 2.78127 27.1174 2.82231 26.7463C3.13125 24.0111 4.44264 21.485 6.50592 19.6507C8.5692 17.8163 11.2397 16.8022 14.0073 16.8022C16.7748 16.8022 19.4453 17.8163 21.5086 19.6507C23.5719 21.485 24.8833 24.0111 25.1922 26.7463C25.2305 27.0901 25.3954 27.4076 25.6553 27.6376C25.9151 27.8675 26.2513 27.9937 26.5991 27.9916H26.7539C27.1227 27.9494 27.4598 27.7639 27.6917 27.4756C27.9236 27.1873 28.0315 26.8195 27.992 26.4524C27.7099 23.9286 26.7425 21.5287 25.1934 19.5099C23.6444 17.4912 21.5721 15.9298 19.1988 14.9931ZM13.9791 13.9996C12.8661 13.9996 11.778 13.6714 10.8526 13.0564C9.92711 12.4414 9.2058 11.5673 8.77986 10.5446C8.35392 9.52197 8.24247 8.39664 8.45961 7.31097C8.67676 6.22531 9.21274 5.22806 9.99978 4.44533C10.7868 3.66261 11.7896 3.12957 12.8812 2.91362C13.9729 2.69766 15.1044 2.8085 16.1327 3.23211C17.1611 3.65571 18.04 4.37306 18.6584 5.29345C19.2767 6.21383 19.6068 7.29591 19.6068 8.40285C19.6068 9.88721 19.0139 11.3108 17.9585 12.3604C16.9031 13.41 15.4717 13.9996 13.9791 13.9996Z" fill="#EFF0F0"/>
</svg>
